<svg width="128" height="128" viewBox="0 0 128 128" fill="none" xmlns="http://www.w3.org/2000/svg">
<path d="M70.4226 90.2335C71.9017 90.4278 72.7546 87.4588 73.2836 86.336C81.3378 69.1156 88.0532 51.1935 96.1721 34.0164C99.1843 27.6357 101.171 20.6504 108.48 18.124C110.521 17.4223 127.255 14.3777 128 15.0255C119.471 35.1608 110.542 55.1774 101.538 75.0969C98.6013 81.5855 95.4379 89.1862 92.4797 95.5345C90.0937 100.641 86.6604 110.509 80.8519 112.193C79.5455 112.571 78.9086 111.945 78.6494 111.978C76.6845 104.506 73.3376 97.3915 70.4226 90.2335Z" fill="#E89B26"/>
<path d="M72.2437 90.1152C75.1588 97.2625 78.5057 104.388 80.4706 111.859C80.3303 111.881 79.8012 112.421 79.0455 112.464C73.5717 112.788 65.4852 113.23 61.0694 109.819C57.1935 106.817 50.273 90.9682 47.6494 85.6347C46.7101 83.7345 45.9436 81.5429 45.2202 79.5455H20.5396L24.4587 71.297L64.222 71.4158C64.9022 71.5777 65.0317 72.1607 65.334 72.6574C67.72 76.6197 70.3112 85.3648 72.2545 90.126L72.2437 90.1152Z" fill="#F7F9FB"/>
<path d="M62.2847 63.9827H41.426C39.5042 63.9827 36.3408 59.7397 35.4339 58.0986C22.7049 56.7059 4.35097 63.6588 0 46.9459H54.9431C57.5235 46.9459 61.5073 61.3376 62.2847 63.9827Z" fill="#E89B26"/>
<path d="M98.1648 19.2037C95.4029 25.5875 91.8345 31.4803 90.087 38.4098L57.0548 38.3553C54.2196 31.7395 49.0136 26.024 46.9484 19.2037H98.1648Z" fill="#F7F9FB"/>
<path d="M40.675 19.2037C43.7412 26.1134 49.4741 31.6736 52.4323 38.5941H26.8771C23.1308 32.235 18.8986 25.9946 16.0051 19.2037H40.6858H40.675Z" fill="#F7F9FB"/>
</svg>
