<svg xmlns="http://www.w3.org/2000/svg" width="19" height="19" viewBox="0 0 19 19" fill="none">
  <path d="M 15.231 18.722 C 15.626 19.108 16.259 19.1 16.645 18.705 C 17.031 18.31 17.023 17.677 16.628 17.291 L 15.93 18.007 L 15.231 18.722 Z M 8.917 12.268 C 9.314 11.884 9.325 11.251 8.941 10.854 C 8.557 10.457 7.924 10.446 7.527 10.83 L 8.222 11.549 L 8.917 12.268 Z M 0.847 17.288 C 0.449 17.671 0.439 18.304 0.823 18.702 C 1.206 19.099 1.84 19.109 2.237 18.726 L 1.542 18.007 L 0.847 17.288 Z M 8.222 3.111 C 8.774 3.111 9.222 2.663 9.222 2.111 C 9.222 1.559 8.774 1.111 8.222 1.111 L 8.222 2.111 L 8.222 3.111 Z M 18.471 11.549 C 18.471 10.997 18.024 10.549 17.471 10.549 C 16.919 10.549 16.471 10.997 16.471 11.549 L 17.471 11.549 L 18.471 11.549 Z M 15.506 8.444 L 14.862 9.21 C 15.234 9.523 15.777 9.523 16.149 9.21 L 15.506 8.444 Z M 14.506 3.378 C 14.506 3.93 14.953 4.378 15.506 4.378 C 16.058 4.378 16.506 3.93 16.506 3.378 L 15.506 3.378 L 14.506 3.378 Z M 16.506 3.314 C 16.506 2.762 16.058 2.314 15.506 2.314 C 14.953 2.314 14.506 2.762 14.506 3.314 L 15.506 3.314 L 16.506 3.314 Z M 0.729 3.167 L 0.031 3.882 L 15.231 18.722 L 15.93 18.007 L 16.628 17.291 L 1.428 2.451 L 0.729 3.167 Z M 8.222 11.549 L 7.527 10.83 L 0.847 17.288 L 1.542 18.007 L 2.237 18.726 L 8.917 12.268 L 8.222 11.549 Z M 14.388 19 L 14.388 18 L 3.083 18 L 3.083 19 L 3.083 20 L 14.388 20 L 14.388 19 Z M 0 16.02 L 1 16.02 L 1 5.092 L 0 5.092 L -1 5.092 L -1 16.02 L 0 16.02 Z M 3.083 19 L 3.083 18 C 1.9 18 1 17.082 1 16.02 L 0 16.02 L -1 16.02 C -1 18.25 0.86 20 3.083 20 L 3.083 19 Z M 17.471 16.02 L 16.471 16.02 C 16.471 17.082 15.571 18 14.388 18 L 14.388 19 L 14.388 20 C 16.611 20 18.471 18.25 18.471 16.02 L 17.471 16.02 Z M 3.083 2.111 L 3.083 1.111 C 1.846 1.111 0.729 1.65 -0.023 2.508 L 0.729 3.167 L 1.481 3.826 C 1.861 3.392 2.433 3.111 3.083 3.111 L 3.083 2.111 Z M 0.729 3.167 L -0.023 2.508 C -0.629 3.2 -1 4.103 -1 5.092 L 0 5.092 L 1 5.092 C 1 4.613 1.178 4.172 1.481 3.826 L 0.729 3.167 Z M 3.083 2.111 L 3.083 3.111 L 8.222 3.111 L 8.222 2.111 L 8.222 1.111 L 3.083 1.111 L 3.083 2.111 Z M 17.471 11.549 L 16.471 11.549 L 16.471 16.02 L 17.471 16.02 L 18.471 16.02 L 18.471 11.549 L 17.471 11.549 Z M 19 3.304 L 18 3.304 C 18 3.609 17.872 4.029 17.581 4.548 C 17.299 5.053 16.909 5.57 16.497 6.046 C 16.088 6.519 15.676 6.93 15.365 7.225 C 15.21 7.371 15.081 7.487 14.993 7.565 C 14.949 7.604 14.915 7.634 14.892 7.653 C 14.881 7.663 14.873 7.67 14.868 7.674 C 14.865 7.676 14.864 7.678 14.863 7.679 C 14.862 7.679 14.862 7.679 14.862 7.679 C 14.862 7.679 14.862 7.679 14.862 7.679 C 14.862 7.679 14.862 7.679 14.862 7.679 C 14.862 7.679 14.862 7.679 15.506 8.444 C 16.149 9.21 16.149 9.21 16.15 9.21 C 16.15 9.21 16.15 9.209 16.15 9.209 C 16.15 9.209 16.151 9.209 16.151 9.208 C 16.152 9.208 16.153 9.207 16.154 9.206 C 16.156 9.204 16.16 9.201 16.164 9.198 C 16.172 9.191 16.183 9.181 16.198 9.169 C 16.227 9.144 16.268 9.108 16.319 9.063 C 16.422 8.972 16.566 8.841 16.739 8.678 C 17.083 8.352 17.544 7.892 18.009 7.355 C 18.471 6.821 18.954 6.191 19.327 5.525 C 19.691 4.874 20 4.101 20 3.304 L 19 3.304 Z M 15.506 8.444 C 16.149 7.679 16.149 7.679 16.149 7.679 C 16.149 7.679 16.15 7.679 16.15 7.679 C 16.15 7.679 16.15 7.679 16.15 7.679 C 16.15 7.679 16.149 7.679 16.149 7.679 C 16.148 7.678 16.146 7.676 16.144 7.674 C 16.139 7.67 16.13 7.663 16.119 7.653 C 16.097 7.634 16.063 7.604 16.019 7.565 C 15.93 7.487 15.802 7.371 15.647 7.225 C 15.336 6.93 14.924 6.519 14.515 6.046 C 14.103 5.57 13.713 5.053 13.43 4.548 C 13.139 4.029 13.011 3.609 13.011 3.304 L 12.011 3.304 L 11.011 3.304 C 11.011 4.101 11.32 4.874 11.685 5.525 C 12.057 6.191 12.541 6.821 13.002 7.355 C 13.467 7.892 13.929 8.352 14.273 8.678 C 14.445 8.841 14.59 8.972 14.693 9.063 C 14.744 9.108 14.785 9.144 14.814 9.169 C 14.828 9.181 14.84 9.191 14.848 9.198 C 14.852 9.201 14.855 9.204 14.858 9.206 C 14.859 9.207 14.86 9.208 14.861 9.208 C 14.861 9.209 14.861 9.209 14.862 9.209 C 14.862 9.209 14.862 9.21 14.862 9.21 C 14.862 9.21 14.862 9.21 15.506 8.444 Z M 12.011 3.304 L 13.011 3.304 C 13.011 2.084 14.075 1 15.506 1 L 15.506 0 L 15.506 -1 C 13.077 -1 11.011 0.875 11.011 3.304 L 12.011 3.304 Z M 15.506 0 L 15.506 1 C 16.937 1 18 2.084 18 3.304 L 19 3.304 L 20 3.304 C 20 0.875 17.934 -1 15.506 -1 L 15.506 0 Z M 15.506 3.378 L 16.506 3.378 L 16.506 3.314 L 15.506 3.314 L 14.506 3.314 L 14.506 3.378 L 15.506 3.378 Z" fill="currentColor" fill-rule="nonzero"/>
</svg>
