<svg xmlns="http://www.w3.org/2000/svg" width="20.130" height="19.200" viewBox="0 0 20.130 19.200" fill="none">
  <path d="M 6.462 6.04 L 6.318 5.05 L 6.318 5.05 L 6.462 6.04 Z M 6.886 5.732 L 5.989 5.289 L 6.886 5.732 Z M 0.171 7.869 L -0.527 8.586 L 0.171 7.869 Z M 0.483 6.909 L 0.627 7.899 L 0.483 6.909 Z M 4.659 12.585 L 5.645 12.754 L 4.659 12.585 Z M 4.497 12.087 L 5.195 11.371 L 4.497 12.087 Z M 4.455 19.134 L 4.92 20.019 L 4.92 20.019 L 4.455 19.134 Z M 3.638 18.54 L 2.652 18.371 L 3.638 18.54 Z M 10.327 16.322 L 10.792 15.437 L 10.792 15.437 L 10.327 16.322 Z M 9.803 16.322 L 9.338 15.437 L 9.338 15.437 L 9.803 16.322 Z M 16.492 18.54 L 17.478 18.371 L 16.492 18.54 Z M 15.675 19.134 L 15.21 20.019 L 15.21 20.019 L 15.675 19.134 Z M 15.633 12.087 L 14.935 11.371 L 14.935 11.371 L 15.633 12.087 Z M 15.471 12.585 L 14.485 12.754 L 15.471 12.585 Z M 19.647 6.909 L 19.791 5.919 L 19.647 6.909 Z M 19.959 7.869 L 20.657 8.586 L 20.657 8.586 L 19.959 7.869 Z M 13.244 5.732 L 14.141 5.289 L 14.141 5.289 L 13.244 5.732 Z M 13.668 6.04 L 13.812 5.05 L 13.668 6.04 Z M 10.57 0.314 L 9.673 0.756 L 9.673 0.756 L 10.57 0.314 Z M 9.56 0.314 L 10.457 0.756 L 10.457 0.756 L 9.56 0.314 Z M 10.57 0.314 L 9.673 0.756 L 12.347 6.175 L 13.244 5.732 L 14.141 5.289 L 11.467 -0.129 L 10.57 0.314 Z M 13.668 6.04 L 13.524 7.03 L 19.503 7.899 L 19.647 6.909 L 19.791 5.919 L 13.812 5.05 L 13.668 6.04 Z M 19.959 7.869 L 19.261 7.153 L 14.935 11.371 L 15.633 12.087 L 16.331 12.803 L 20.657 8.586 L 19.959 7.869 Z M 15.471 12.585 L 14.485 12.754 L 15.507 18.709 L 16.492 18.54 L 17.478 18.371 L 16.456 12.416 L 15.471 12.585 Z M 15.675 19.134 L 16.14 18.249 L 10.792 15.437 L 10.327 16.322 L 9.862 17.208 L 15.21 20.019 L 15.675 19.134 Z M 9.803 16.322 L 9.338 15.437 L 3.99 18.249 L 4.455 19.134 L 4.92 20.019 L 10.268 17.208 L 9.803 16.322 Z M 3.638 18.54 L 4.623 18.709 L 5.645 12.754 L 4.659 12.585 L 3.674 12.416 L 2.652 18.371 L 3.638 18.54 Z M 4.497 12.087 L 5.195 11.371 L 0.869 7.153 L 0.171 7.869 L -0.527 8.586 L 3.799 12.803 L 4.497 12.087 Z M 0.483 6.909 L 0.627 7.899 L 6.606 7.03 L 6.462 6.04 L 6.318 5.05 L 0.339 5.919 L 0.483 6.909 Z M 6.886 5.732 L 7.783 6.175 L 10.457 0.756 L 9.56 0.314 L 8.663 -0.129 L 5.989 5.289 L 6.886 5.732 Z M 6.462 6.04 L 6.606 7.03 C 7.115 6.956 7.555 6.636 7.783 6.175 L 6.886 5.732 L 5.989 5.289 C 6.053 5.161 6.176 5.071 6.318 5.05 L 6.462 6.04 Z M 0.171 7.869 L 0.869 7.153 C 1.128 7.406 0.985 7.846 0.627 7.899 L 0.483 6.909 L 0.339 5.919 C -0.943 6.106 -1.455 7.681 -0.527 8.586 L 0.171 7.869 Z M 4.659 12.585 L 5.645 12.754 C 5.732 12.247 5.564 11.73 5.195 11.371 L 4.497 12.087 L 3.799 12.803 C 3.696 12.703 3.649 12.558 3.674 12.416 L 4.659 12.585 Z M 4.455 19.134 L 3.99 18.249 C 4.31 18.08 4.685 18.353 4.623 18.709 L 3.638 18.54 L 2.652 18.371 C 2.433 19.648 3.774 20.622 4.92 20.019 L 4.455 19.134 Z M 10.327 16.322 L 10.792 15.437 C 10.337 15.198 9.793 15.198 9.338 15.437 L 9.803 16.322 L 10.268 17.208 C 10.141 17.274 9.989 17.274 9.862 17.208 L 10.327 16.322 Z M 16.492 18.54 L 15.507 18.709 C 15.445 18.353 15.82 18.08 16.14 18.249 L 15.675 19.134 L 15.21 20.019 C 16.356 20.622 17.697 19.648 17.478 18.371 L 16.492 18.54 Z M 15.633 12.087 L 14.935 11.371 C 14.566 11.73 14.398 12.247 14.485 12.754 L 15.471 12.585 L 16.456 12.416 C 16.481 12.558 16.434 12.703 16.331 12.803 L 15.633 12.087 Z M 19.647 6.909 L 19.503 7.899 C 19.145 7.846 19.002 7.406 19.261 7.153 L 19.959 7.869 L 20.657 8.586 C 21.585 7.681 21.073 6.106 19.791 5.919 L 19.647 6.909 Z M 13.244 5.732 L 12.347 6.175 C 12.575 6.636 13.015 6.956 13.524 7.03 L 13.668 6.04 L 13.812 5.05 C 13.954 5.071 14.077 5.161 14.141 5.289 L 13.244 5.732 Z M 10.57 0.314 L 11.467 -0.129 C 10.893 -1.29 9.237 -1.29 8.663 -0.129 L 9.56 0.314 L 10.457 0.756 C 10.297 1.081 9.834 1.081 9.673 0.756 L 10.57 0.314 Z" fill="currentColor" fill-rule="nonzero"/>
</svg>
