<svg xmlns="http://www.w3.org/2000/svg" width="18" height="18" viewBox="0 0 18 18" fill="none">
  <path d="M 2.668 7.457 C 3.058 7.848 3.692 7.848 4.082 7.457 C 4.473 7.067 4.473 6.433 4.082 6.043 L 3.375 6.75 L 2.668 7.457 Z M 0 3.375 L -0.707 2.668 C -1.098 3.058 -1.098 3.692 -0.707 4.082 L 0 3.375 Z M 4.082 0.707 C 4.473 0.317 4.473 -0.317 4.082 -0.707 C 3.692 -1.098 3.058 -1.098 2.668 -0.707 L 3.375 0 L 4.082 0.707 Z M 18 4.375 C 18.552 4.375 19 3.927 19 3.375 C 19 2.823 18.552 2.375 18 2.375 L 18 3.375 L 18 4.375 Z M 15.332 10.543 C 14.942 10.152 14.308 10.152 13.918 10.543 C 13.527 10.933 13.527 11.567 13.918 11.957 L 14.625 11.25 L 15.332 10.543 Z M 18 14.625 L 18.707 15.332 C 19.098 14.942 19.098 14.308 18.707 13.918 L 18 14.625 Z M 13.918 17.293 C 13.527 17.683 13.527 18.317 13.918 18.707 C 14.308 19.098 14.942 19.098 15.332 18.707 L 14.625 18 L 13.918 17.293 Z M 0 13.625 C -0.552 13.625 -1 14.073 -1 14.625 C -1 15.177 -0.552 15.625 0 15.625 L 0 14.625 L 0 13.625 Z M 3.375 6.75 L 4.082 6.043 L 0.707 2.668 L 0 3.375 L -0.707 4.082 L 2.668 7.457 L 3.375 6.75 Z M 0 3.375 L 0.707 4.082 L 4.082 0.707 L 3.375 0 L 2.668 -0.707 L -0.707 2.668 L 0 3.375 Z M 0 3.375 L 0 4.375 L 18 4.375 L 18 3.375 L 18 2.375 L 0 2.375 L 0 3.375 Z M 14.625 11.25 L 13.918 11.957 L 17.293 15.332 L 18 14.625 L 18.707 13.918 L 15.332 10.543 L 14.625 11.25 Z M 18 14.625 L 17.293 13.918 L 13.918 17.293 L 14.625 18 L 15.332 18.707 L 18.707 15.332 L 18 14.625 Z M 18 14.625 L 18 13.625 L 0 13.625 L 0 14.625 L 0 15.625 L 18 15.625 L 18 14.625 Z" fill="currentColor" fill-rule="nonzero"/>
</svg>
