<svg xmlns="http://www.w3.org/2000/svg" width="21.600" height="17.080" viewBox="0 0 21.600 17.080" fill="none">
  <path d="M 10.801 0 L 11.801 -0.028 C 11.785 -0.569 11.342 -1 10.801 -1 L 10.801 0 Z M 0 3.812 L -1 3.812 L -1 3.812 L 0 3.812 Z M 0 13.269 L 1 13.269 L 1 13.269 L 0 13.269 Z M 10.801 17.08 L 10.801 18.08 C 11.342 18.08 11.785 17.65 11.801 17.109 L 10.801 17.08 Z M 16.049 17.08 L 15.049 17.109 C 15.065 17.65 15.508 18.08 16.049 18.08 L 16.049 17.08 Z M 16.049 0 L 16.049 -1 C 15.508 -1 15.065 -0.569 15.049 -0.028 L 16.049 0 Z M 12.2 11.4 C 12.2 11.952 12.647 12.4 13.2 12.4 C 13.752 12.4 14.2 11.952 14.2 11.4 L 13.2 11.4 L 12.2 11.4 Z M 14.2 5.494 C 14.2 4.941 13.752 4.494 13.2 4.494 C 12.647 4.494 12.2 4.941 12.2 5.494 L 13.2 5.494 L 14.2 5.494 Z M 3.812 0 L 3.812 1 L 10.801 1 L 10.801 0 L 10.801 -1 L 3.812 -1 L 3.812 0 Z M 0 3.812 L 1 3.812 C 1 2.259 2.259 1 3.812 1 L 3.812 0 L 3.812 -1 C 1.154 -1 -1 1.154 -1 3.812 L 0 3.812 Z M 0 13.269 L 1 13.269 L 1 3.812 L 0 3.812 L -1 3.812 L -1 13.269 L 0 13.269 Z M 3.812 17.08 L 3.812 16.08 C 2.259 16.08 1 14.822 1 13.269 L 0 13.269 L -1 13.269 C -1 15.926 1.154 18.08 3.812 18.08 L 3.812 17.08 Z M 10.801 17.08 L 10.801 16.08 L 3.812 16.08 L 3.812 17.08 L 3.812 18.08 L 10.801 18.08 L 10.801 17.08 Z M 10.801 17.08 L 11.801 17.109 C 11.825 16.233 12.543 15.53 13.425 15.53 L 13.425 14.53 L 13.425 13.53 C 11.457 13.53 9.856 15.098 9.801 17.052 L 10.801 17.08 Z M 13.425 14.53 L 13.425 15.53 C 14.307 15.53 15.025 16.233 15.049 17.109 L 16.049 17.08 L 17.049 17.052 C 16.994 15.098 15.393 13.53 13.425 13.53 L 13.425 14.53 Z M 17.788 17.08 L 17.788 16.08 L 16.049 16.08 L 16.049 17.08 L 16.049 18.08 L 17.788 18.08 L 17.788 17.08 Z M 21.6 13.269 L 20.6 13.269 C 20.6 14.822 19.341 16.08 17.788 16.08 L 17.788 17.08 L 17.788 18.08 C 20.446 18.08 22.6 15.926 22.6 13.269 L 21.6 13.269 Z M 21.6 3.812 L 20.6 3.812 L 20.6 13.269 L 21.6 13.269 L 22.6 13.269 L 22.6 3.812 L 21.6 3.812 Z M 17.788 0 L 17.788 1 C 19.341 1 20.6 2.259 20.6 3.812 L 21.6 3.812 L 22.6 3.812 C 22.6 1.154 20.446 -1 17.788 -1 L 17.788 0 Z M 16.049 0 L 16.049 1 L 17.788 1 L 17.788 0 L 17.788 -1 L 16.049 -1 L 16.049 0 Z M 16.049 0 L 15.049 -0.028 C 15.025 0.847 14.307 1.55 13.425 1.55 L 13.425 2.55 L 13.425 3.55 C 15.393 3.55 16.994 1.983 17.049 0.028 L 16.049 0 Z M 13.425 2.55 L 13.425 1.55 C 12.543 1.55 11.825 0.847 11.801 -0.028 L 10.801 0 L 9.801 0.028 C 9.856 1.983 11.457 3.55 13.425 3.55 L 13.425 2.55 Z M 13.2 11.4 L 14.2 11.4 L 14.2 5.494 L 13.2 5.494 L 12.2 5.494 L 12.2 11.4 L 13.2 11.4 Z" fill="currentColor" fill-rule="nonzero"/>
</svg>
