<svg xmlns="http://www.w3.org/2000/svg" width="19.200" height="20.400" viewBox="0 0 19.200 20.400" fill="none">
  <path d="M 0 18.116 L -0.995 18.017 C -0.998 18.05 -1 18.083 -1 18.116 L 0 18.116 Z M 19.2 18.116 L 20.2 18.116 C 20.2 18.075 20.197 18.034 20.193 17.994 L 19.2 18.116 Z M 17.709 6 L 16.709 6 C 16.709 6.041 16.712 6.082 16.717 6.122 L 17.709 6 Z M 1.2 6 L 2.195 6.099 C 2.198 6.066 2.2 6.033 2.2 6 L 1.2 6 Z M 6 3.6 L 5 3.6 L 5 3.6 L 6 3.6 Z M 9.6 0 L 9.6 1 L 9.6 0 Z M 13.2 3.6 L 12.2 3.6 L 12.2 3.6 L 13.2 3.6 Z M 12.2 6.6 C 12.2 7.152 12.648 7.6 13.2 7.6 C 13.752 7.6 14.2 7.152 14.2 6.6 L 13.2 6.6 L 12.2 6.6 Z M 5 6.6 C 5 7.152 5.448 7.6 6 7.6 C 6.552 7.6 7 7.152 7 6.6 L 6 6.6 L 5 6.6 Z M 3.527 3.716 L 3.527 4.716 L 15.382 4.716 L 15.382 3.716 L 15.382 2.716 L 3.527 2.716 L 3.527 3.716 Z M 17.709 6 L 16.717 6.122 L 18.207 18.238 L 19.2 18.116 L 20.193 17.994 L 18.702 5.878 L 17.709 6 Z M 16.873 20.4 L 16.873 19.4 L 2.327 19.4 L 2.327 20.4 L 2.327 21.4 L 16.873 21.4 L 16.873 20.4 Z M 0 18.116 L 0.995 18.215 L 2.195 6.099 L 1.2 6 L 0.205 5.901 L -0.995 18.017 L 0 18.116 Z M 2.327 20.4 L 2.327 19.4 C 1.576 19.4 1 18.808 1 18.116 L 0 18.116 L -1 18.116 C -1 19.947 0.507 21.4 2.327 21.4 L 2.327 20.4 Z M 19.2 18.116 L 18.2 18.116 C 18.2 18.808 17.624 19.4 16.873 19.4 L 16.873 20.4 L 16.873 21.4 C 18.693 21.4 20.2 19.947 20.2 18.116 L 19.2 18.116 Z M 15.382 3.716 L 15.382 4.716 C 16.133 4.716 16.709 5.308 16.709 6 L 17.709 6 L 18.709 6 C 18.709 4.169 17.202 2.716 15.382 2.716 L 15.382 3.716 Z M 3.527 3.716 L 3.527 2.716 C 1.707 2.716 0.2 4.169 0.2 6 L 1.2 6 L 2.2 6 C 2.2 5.308 2.776 4.716 3.527 4.716 L 3.527 3.716 Z M 6 3.6 L 7 3.6 C 7 2.164 8.164 1 9.6 1 L 9.6 0 L 9.6 -1 C 7.059 -1 5 1.059 5 3.6 L 6 3.6 Z M 9.6 0 L 9.6 1 C 11.036 1 12.2 2.164 12.2 3.6 L 13.2 3.6 L 14.2 3.6 C 14.2 1.059 12.141 -1 9.6 -1 L 9.6 0 Z M 13.2 3.6 L 12.2 3.6 L 12.2 6.6 L 13.2 6.6 L 14.2 6.6 L 14.2 3.6 L 13.2 3.6 Z M 6 3.6 L 5 3.6 L 5 6.6 L 6 6.6 L 7 6.6 L 7 3.6 L 6 3.6 Z" fill="currentColor" fill-rule="nonzero"/>
</svg>
