<svg xmlns="http://www.w3.org/2000/svg" width="16" height="18" viewBox="0 0 16 18" fill="none">
  <path d="M 1 4.914 C 0.448 4.914 0 5.362 0 5.914 C 0 6.467 0.448 6.914 1 6.914 L 1 5.914 L 1 4.914 Z M 15 6.914 C 15.552 6.914 16 6.467 16 5.914 C 16 5.362 15.552 4.914 15 4.914 L 15 5.914 L 15 6.914 Z M 3.81 0 C 3.81 -0.552 3.362 -1 2.81 -1 C 2.257 -1 1.81 -0.552 1.81 0 L 2.81 0 L 3.81 0 Z M 1.81 1.543 C 1.81 2.095 2.257 2.543 2.81 2.543 C 3.362 2.543 3.81 2.095 3.81 1.543 L 2.81 1.543 L 1.81 1.543 Z M 14 0 C 14 -0.552 13.552 -1 13 -1 C 12.448 -1 12 -0.552 12 0 L 13 0 L 14 0 Z M 12 1.543 C 12 2.095 12.448 2.543 13 2.543 C 13.552 2.543 14 2.095 14 1.543 L 13 1.543 L 12 1.543 Z M 16 4.243 L 15 4.243 L 15 4.243 L 16 4.243 Z M 16 15.3 L 17 15.3 L 17 15.3 L 16 15.3 Z M 0 4.243 L -1 4.243 L -1 15.3 L 0 15.3 L 1 15.3 L 1 4.243 L 0 4.243 Z M 2.667 18 L 2.667 19 L 13.333 19 L 13.333 18 L 13.333 17 L 2.667 17 L 2.667 18 Z M 16 15.3 L 17 15.3 L 17 4.243 L 16 4.243 L 15 4.243 L 15 15.3 L 16 15.3 Z M 13.333 1.543 L 13.333 0.543 L 2.667 0.543 L 2.667 1.543 L 2.667 2.543 L 13.333 2.543 L 13.333 1.543 Z M 1 5.914 L 1 6.914 L 15 6.914 L 15 5.914 L 15 4.914 L 1 4.914 L 1 5.914 Z M 2.81 0 L 1.81 0 L 1.81 1.543 L 2.81 1.543 L 3.81 1.543 L 3.81 0 L 2.81 0 Z M 13 0 L 12 0 L 12 1.543 L 13 1.543 L 14 1.543 L 14 0 L 13 0 Z M 16 4.243 L 17 4.243 C 17 2.211 15.37 0.543 13.333 0.543 L 13.333 1.543 L 13.333 2.543 C 14.242 2.543 15 3.292 15 4.243 L 16 4.243 Z M 13.333 18 L 13.333 19 C 15.37 19 17 17.332 17 15.3 L 16 15.3 L 15 15.3 C 15 16.251 14.242 17 13.333 17 L 13.333 18 Z M 0 15.3 L -1 15.3 C -1 17.332 0.63 19 2.667 19 L 2.667 18 L 2.667 17 C 1.758 17 1 16.251 1 15.3 L 0 15.3 Z M 0 4.243 L 1 4.243 C 1 3.292 1.758 2.543 2.667 2.543 L 2.667 1.543 L 2.667 0.543 C 0.63 0.543 -1 2.211 -1 4.243 L 0 4.243 Z" fill="currentColor" fill-rule="nonzero"/>
</svg>
