<svg xmlns="http://www.w3.org/2000/svg" width="19.200" height="19.200" viewBox="0 0 19.200 19.200" fill="none">
  <path d="M 5.293 12.493 C 4.903 12.884 4.903 13.517 5.293 13.907 C 5.684 14.298 6.317 14.298 6.707 13.907 L 6 13.2 L 5.293 12.493 Z M 13.907 6.707 C 14.298 6.317 14.298 5.684 13.907 5.293 C 13.517 4.903 12.884 4.903 12.493 5.293 L 13.2 6 L 13.907 6.707 Z M 5.844 7.253 C 6.232 7.645 6.865 7.649 7.258 7.26 C 7.65 6.872 7.653 6.238 7.265 5.846 L 6.554 6.549 L 5.844 7.253 Z M 7.251 5.832 C 6.862 5.439 6.229 5.436 5.837 5.825 C 5.444 6.213 5.441 6.846 5.829 7.239 L 6.54 6.535 L 7.251 5.832 Z M 11.954 13.426 C 12.343 13.819 12.976 13.822 13.368 13.434 C 13.761 13.045 13.764 12.412 13.375 12.019 L 12.665 12.723 L 11.954 13.426 Z M 13.361 12.005 C 12.973 11.613 12.34 11.609 11.947 11.998 C 11.555 12.386 11.551 13.02 11.94 13.412 L 12.651 12.709 L 13.361 12.005 Z M 9.099 1.238 L 8.615 2.113 L 8.615 2.113 L 9.099 1.238 Z M 9.898 1.228 L 10.404 2.09 L 9.898 1.228 Z M 6.029 0.578 L 6.944 0.98 L 6.944 0.98 L 6.029 0.578 Z M 7.175 0.173 L 7.659 -0.702 L 7.659 -0.702 L 7.175 0.173 Z M 4.482 3.142 L 4.628 4.131 L 4.628 4.131 L 4.482 3.142 Z M 5.122 2.644 L 4.206 2.242 L 4.206 2.242 L 5.122 2.644 Z M 1.626 4.49 L 0.644 4.68 L 0.644 4.68 L 1.626 4.49 Z M 2.325 3.46 L 2.179 2.471 L 2.179 2.471 L 2.325 3.46 Z M 1.82 7.513 L 2.53 8.217 L 2.53 8.217 L 1.82 7.513 Z M 2.057 6.718 L 3.038 6.528 L 3.038 6.528 L 2.057 6.718 Z M 0.269 10.354 L 0.961 9.633 L 0.961 9.633 L 0.269 10.354 Z M 0.254 9.092 L -0.457 8.388 L -0.457 8.388 L 0.254 9.092 Z M 2.129 12.681 L 1.143 12.515 L 1.143 12.515 L 2.129 12.681 Z M 1.873 11.892 L 1.181 12.614 L 1.181 12.614 L 1.873 11.892 Z M 2.476 15.93 L 2.596 14.937 L 2.596 14.937 L 2.476 15.93 Z M 1.752 14.918 L 2.739 15.084 L 2.739 15.084 L 1.752 14.918 Z M 5.292 16.672 L 6.198 16.248 L 5.292 16.672 Z M 4.64 16.191 L 4.521 17.184 L 4.521 17.184 L 4.64 16.191 Z M 7.405 19.088 L 7.911 19.95 L 7.911 19.95 L 7.405 19.088 Z M 6.249 18.713 L 5.343 19.138 L 5.343 19.138 L 6.249 18.713 Z M 10.101 17.962 L 10.585 17.087 L 10.585 17.087 L 10.101 17.962 Z M 9.302 17.972 L 8.796 17.11 L 8.796 17.11 L 9.302 17.972 Z M 13.171 18.622 L 12.256 18.22 L 12.256 18.22 L 13.171 18.622 Z M 12.025 19.027 L 11.541 19.902 L 11.541 19.902 L 12.025 19.027 Z M 14.718 16.058 L 14.864 17.047 L 14.864 17.047 L 14.718 16.058 Z M 14.078 16.556 L 14.994 16.958 L 14.994 16.958 L 14.078 16.556 Z M 17.574 14.709 L 18.556 14.52 L 18.556 14.52 L 17.574 14.709 Z M 16.875 15.74 L 16.73 14.751 L 16.73 14.751 L 16.875 15.74 Z M 17.38 11.687 L 16.67 10.983 L 16.67 10.983 L 17.38 11.687 Z M 17.143 12.482 L 16.162 12.672 L 16.162 12.672 L 17.143 12.482 Z M 18.931 8.846 L 19.623 8.124 L 19.623 8.124 L 18.931 8.846 Z M 18.946 10.108 L 19.657 10.812 L 19.657 10.812 L 18.946 10.108 Z M 17.071 6.519 L 16.085 6.353 L 16.085 6.353 L 17.071 6.519 Z M 17.327 7.308 L 16.635 8.03 L 16.635 8.03 L 17.327 7.308 Z M 16.724 3.27 L 16.844 2.277 L 16.844 2.277 L 16.724 3.27 Z M 17.448 4.282 L 18.434 4.447 L 18.434 4.447 L 17.448 4.282 Z M 13.908 2.528 L 14.813 2.104 L 14.813 2.104 L 13.908 2.528 Z M 14.56 3.009 L 14.44 4.002 L 14.44 4.002 L 14.56 3.009 Z M 12.951 0.487 L 12.046 0.911 L 12.046 0.911 L 12.951 0.487 Z M 11.795 0.112 L 12.302 0.974 L 11.795 0.112 Z M 6 13.2 L 6.707 13.907 L 13.907 6.707 L 13.2 6 L 12.493 5.293 L 5.293 12.493 L 6 13.2 Z M 6.554 6.549 L 7.265 5.846 L 7.251 5.832 L 6.54 6.535 L 5.829 7.239 L 5.844 7.253 L 6.554 6.549 Z M 12.665 12.723 L 13.375 12.019 L 13.361 12.005 L 12.651 12.709 L 11.94 13.412 L 11.954 13.426 L 12.665 12.723 Z M 12.951 0.487 L 12.046 0.911 L 13.002 2.952 L 13.908 2.528 L 14.813 2.104 L 13.857 0.062 L 12.951 0.487 Z M 14.56 3.009 L 14.44 4.002 L 16.604 4.263 L 16.724 3.27 L 16.844 2.277 L 14.679 2.016 L 14.56 3.009 Z M 17.448 4.282 L 16.461 4.116 L 16.085 6.353 L 17.071 6.519 L 18.057 6.685 L 18.434 4.447 L 17.448 4.282 Z M 17.327 7.308 L 16.635 8.03 L 18.239 9.567 L 18.931 8.846 L 19.623 8.124 L 18.019 6.586 L 17.327 7.308 Z M 18.946 10.108 L 18.236 9.404 L 16.67 10.983 L 17.38 11.687 L 18.091 12.391 L 19.657 10.812 L 18.946 10.108 Z M 17.143 12.482 L 16.162 12.672 L 16.592 14.899 L 17.574 14.709 L 18.556 14.52 L 18.125 12.292 L 17.143 12.482 Z M 16.875 15.74 L 16.73 14.751 L 14.572 15.069 L 14.718 16.058 L 14.864 17.047 L 17.021 16.729 L 16.875 15.74 Z M 14.078 16.556 L 13.162 16.154 L 12.256 18.22 L 13.171 18.622 L 14.087 19.024 L 14.994 16.958 L 14.078 16.556 Z M 12.025 19.027 L 12.509 18.152 L 10.585 17.087 L 10.101 17.962 L 9.617 18.837 L 11.541 19.902 L 12.025 19.027 Z M 9.302 17.972 L 8.796 17.11 L 6.898 18.226 L 7.405 19.088 L 7.911 19.95 L 9.809 18.834 L 9.302 17.972 Z M 6.249 18.713 L 7.154 18.289 L 6.198 16.248 L 5.292 16.672 L 4.387 17.096 L 5.343 19.138 L 6.249 18.713 Z M 4.64 16.191 L 4.76 15.198 L 2.596 14.937 L 2.476 15.93 L 2.356 16.923 L 4.521 17.184 L 4.64 16.191 Z M 1.752 14.918 L 2.739 15.084 L 3.115 12.847 L 2.129 12.681 L 1.143 12.515 L 0.766 14.752 L 1.752 14.918 Z M 1.873 11.892 L 2.565 11.17 L 0.961 9.633 L 0.269 10.354 L -0.423 11.076 L 1.181 12.614 L 1.873 11.892 Z M 0.254 9.092 L 0.964 9.796 L 2.53 8.217 L 1.82 7.513 L 1.109 6.809 L -0.457 8.388 L 0.254 9.092 Z M 2.057 6.718 L 3.038 6.528 L 2.608 4.301 L 1.626 4.49 L 0.644 4.68 L 1.075 6.908 L 2.057 6.718 Z M 2.325 3.46 L 2.47 4.449 L 4.628 4.131 L 4.482 3.142 L 4.336 2.153 L 2.179 2.471 L 2.325 3.46 Z M 5.122 2.644 L 6.038 3.046 L 6.944 0.98 L 6.029 0.578 L 5.113 0.176 L 4.206 2.242 L 5.122 2.644 Z M 7.175 0.173 L 6.691 1.048 L 8.615 2.113 L 9.099 1.238 L 9.583 0.363 L 7.659 -0.702 L 7.175 0.173 Z M 9.898 1.228 L 10.404 2.09 L 12.302 0.974 L 11.795 0.112 L 11.289 -0.75 L 9.391 0.366 L 9.898 1.228 Z M 9.099 1.238 L 8.615 2.113 C 9.175 2.423 9.853 2.414 10.404 2.09 L 9.898 1.228 L 9.391 0.366 C 9.448 0.332 9.524 0.33 9.583 0.363 L 9.099 1.238 Z M 6.029 0.578 L 6.944 0.98 C 6.932 1.009 6.9 1.043 6.851 1.061 C 6.801 1.078 6.739 1.075 6.691 1.048 L 7.175 0.173 L 7.659 -0.702 C 6.697 -1.234 5.537 -0.791 5.113 0.176 L 6.029 0.578 Z M 4.482 3.142 L 4.628 4.131 C 5.263 4.038 5.787 3.617 6.038 3.046 L 5.122 2.644 L 4.206 2.242 C 4.221 2.209 4.262 2.164 4.336 2.153 L 4.482 3.142 Z M 1.626 4.49 L 2.608 4.301 C 2.612 4.325 2.607 4.354 2.59 4.379 C 2.572 4.406 2.531 4.44 2.47 4.449 L 2.325 3.46 L 2.179 2.471 C 1.102 2.629 0.449 3.671 0.644 4.68 L 1.626 4.49 Z M 1.82 7.513 L 2.53 8.217 C 2.972 7.771 3.156 7.134 3.038 6.528 L 2.057 6.718 L 1.075 6.908 C 1.072 6.892 1.073 6.876 1.077 6.861 C 1.082 6.846 1.091 6.827 1.109 6.809 L 1.82 7.513 Z M 0.269 10.354 L 0.961 9.633 C 0.992 9.662 1 9.695 1 9.715 C 1 9.734 0.993 9.767 0.964 9.796 L 0.254 9.092 L -0.457 8.388 C -1.193 9.131 -1.18 10.351 -0.423 11.076 L 0.269 10.354 Z M 2.129 12.681 L 3.115 12.847 C 3.218 12.237 3.018 11.605 2.565 11.17 L 1.873 11.892 L 1.181 12.614 C 1.144 12.579 1.138 12.541 1.143 12.515 L 2.129 12.681 Z M 2.476 15.93 L 2.596 14.937 C 2.657 14.945 2.699 14.979 2.718 15.005 C 2.737 15.031 2.743 15.061 2.739 15.084 L 1.752 14.918 L 0.766 14.752 C 0.596 15.766 1.275 16.793 2.356 16.923 L 2.476 15.93 Z M 5.292 16.672 L 6.198 16.248 C 5.933 15.682 5.398 15.275 4.76 15.198 L 4.64 16.191 L 4.521 17.184 C 4.446 17.175 4.403 17.13 4.387 17.096 L 5.292 16.672 Z M 7.405 19.088 L 6.898 18.226 C 6.945 18.198 7.006 18.193 7.058 18.209 C 7.108 18.226 7.141 18.26 7.154 18.289 L 6.249 18.713 L 5.343 19.138 C 5.792 20.096 6.964 20.507 7.911 19.95 L 7.405 19.088 Z M 10.101 17.962 L 10.585 17.087 C 10.025 16.777 9.347 16.786 8.796 17.11 L 9.302 17.972 L 9.809 18.834 C 9.752 18.868 9.676 18.87 9.617 18.837 L 10.101 17.962 Z M 13.171 18.622 L 12.256 18.22 C 12.268 18.191 12.3 18.157 12.349 18.139 C 12.399 18.122 12.461 18.125 12.509 18.152 L 12.025 19.027 L 11.541 19.902 C 12.503 20.434 13.663 19.991 14.087 19.024 L 13.171 18.622 Z M 14.718 16.058 L 14.572 15.069 C 13.937 15.162 13.413 15.583 13.162 16.154 L 14.078 16.556 L 14.994 16.958 C 14.979 16.991 14.938 17.036 14.864 17.047 L 14.718 16.058 Z M 17.574 14.709 L 16.592 14.899 C 16.588 14.875 16.593 14.846 16.61 14.821 C 16.628 14.794 16.669 14.76 16.73 14.751 L 16.875 15.74 L 17.021 16.729 C 18.098 16.571 18.751 15.529 18.556 14.52 L 17.574 14.709 Z M 17.38 11.687 L 16.67 10.983 C 16.228 11.429 16.044 12.066 16.162 12.672 L 17.143 12.482 L 18.125 12.292 C 18.128 12.308 18.127 12.324 18.123 12.339 C 18.118 12.354 18.109 12.373 18.091 12.391 L 17.38 11.687 Z M 18.931 8.846 L 18.239 9.567 C 18.208 9.538 18.2 9.505 18.2 9.485 C 18.2 9.466 18.207 9.433 18.236 9.404 L 18.946 10.108 L 19.657 10.812 C 20.393 10.069 20.38 8.849 19.623 8.124 L 18.931 8.846 Z M 17.071 6.519 L 16.085 6.353 C 15.982 6.963 16.182 7.595 16.635 8.03 L 17.327 7.308 L 18.019 6.586 C 18.056 6.621 18.062 6.659 18.057 6.685 L 17.071 6.519 Z M 16.724 3.27 L 16.604 4.263 C 16.543 4.255 16.501 4.221 16.482 4.195 C 16.463 4.169 16.457 4.139 16.461 4.116 L 17.448 4.282 L 18.434 4.447 C 18.604 3.434 17.925 2.407 16.844 2.277 L 16.724 3.27 Z M 13.908 2.528 L 13.002 2.952 C 13.267 3.518 13.802 3.925 14.44 4.002 L 14.56 3.009 L 14.679 2.016 C 14.754 2.025 14.797 2.07 14.813 2.104 L 13.908 2.528 Z M 12.951 0.487 L 13.857 0.062 C 13.408 -0.896 12.236 -1.307 11.289 -0.75 L 11.795 0.112 L 12.302 0.974 C 12.255 1.002 12.194 1.007 12.142 0.991 C 12.092 0.974 12.059 0.94 12.046 0.911 L 12.951 0.487 Z" fill="currentColor" fill-rule="nonzero"/>
</svg>
