<svg xmlns="http://www.w3.org/2000/svg" width="19.868" height="18" viewBox="0 0 19.868 18" fill="none">
  <path d="M 11.499 18.685 C 12.034 18.547 12.356 18.002 12.218 17.467 C 12.081 16.932 11.536 16.61 11.001 16.748 L 11.25 17.716 L 11.499 18.685 Z M 16.938 7.999 C 17.006 8.547 17.506 8.936 18.054 8.867 C 18.602 8.799 18.991 8.299 18.923 7.751 L 17.93 7.875 L 16.938 7.999 Z M 1.125 11.375 C 0.573 11.375 0.125 11.823 0.125 12.375 C 0.125 12.927 0.573 13.375 1.125 13.375 L 1.125 12.375 L 1.125 11.375 Z M 12.25 1.125 C 12.25 0.573 11.802 0.125 11.25 0.125 C 10.698 0.125 10.25 0.573 10.25 1.125 L 11.25 1.125 L 12.25 1.125 Z M 16.92 14.646 L 16.593 13.701 C 16.311 13.798 16.088 14.016 15.983 14.295 L 16.92 14.646 Z M 12.411 10.87 L 11.473 11.218 L 11.473 11.218 L 12.411 10.87 Z M 13.133 10.166 L 13.504 9.237 L 13.504 9.237 L 13.133 10.166 Z M 15.878 17.423 L 16.814 17.774 L 16.814 17.774 L 15.878 17.423 Z M 14.844 17.422 L 15.782 17.074 L 15.782 17.074 L 14.844 17.422 Z M 19.496 13.755 L 19.823 14.7 L 19.823 14.7 L 19.496 13.755 Z M 19.521 12.721 L 19.149 13.65 L 19.149 13.65 L 19.521 12.721 Z M 9 18 L 9 17 C 4.582 17 1 13.418 1 9 L 0 9 L -1 9 C -1 14.523 3.477 19 9 19 L 9 18 Z M 0 9 L 1 9 C 1 4.582 4.582 1 9 1 L 9 0 L 9 -1 C 3.477 -1 -1 3.477 -1 9 L 0 9 Z M 11.25 17.716 L 11.001 16.748 C 10.362 16.912 9.692 17 9 17 L 9 18 L 9 19 C 9.862 19 10.699 18.891 11.499 18.685 L 11.25 17.716 Z M 9 0 L 9 1 C 13.079 1 16.446 4.053 16.938 7.999 L 17.93 7.875 L 18.923 7.751 C 18.307 2.817 14.1 -1 9 -1 L 9 0 Z M 1.125 12.375 L 1.125 13.375 L 3.75 13.375 L 3.75 12.375 L 3.75 11.375 L 1.125 11.375 L 1.125 12.375 Z M 5.625 10.5 L 6.625 10.5 L 6.625 8.063 L 5.625 8.063 L 4.625 8.063 L 4.625 10.5 L 5.625 10.5 Z M 7.5 6.188 L 7.5 7.188 L 9.375 7.188 L 9.375 6.188 L 9.375 5.188 L 7.5 5.188 L 7.5 6.188 Z M 11.25 4.313 L 12.25 4.313 L 12.25 1.125 L 11.25 1.125 L 10.25 1.125 L 10.25 4.313 L 11.25 4.313 Z M 9.375 6.188 L 9.375 7.188 C 10.963 7.188 12.25 5.9 12.25 4.313 L 11.25 4.313 L 10.25 4.313 C 10.25 4.796 9.858 5.188 9.375 5.188 L 9.375 6.188 Z M 5.625 8.063 L 6.625 8.063 C 6.625 7.579 7.017 7.188 7.5 7.188 L 7.5 6.188 L 7.5 5.188 C 5.912 5.188 4.625 6.475 4.625 8.063 L 5.625 8.063 Z M 3.75 12.375 L 3.75 13.375 C 5.338 13.375 6.625 12.088 6.625 10.5 L 5.625 10.5 L 4.625 10.5 C 4.625 10.983 4.233 11.375 3.75 11.375 L 3.75 12.375 Z M 19.496 13.755 L 19.169 12.81 L 16.593 13.701 L 16.92 14.646 L 17.246 15.591 L 19.823 14.7 L 19.496 13.755 Z M 16.92 14.646 L 15.983 14.295 L 14.942 17.072 L 15.878 17.423 L 16.814 17.774 L 17.856 14.997 L 16.92 14.646 Z M 14.844 17.422 L 15.782 17.074 L 13.348 10.522 L 12.411 10.87 L 11.473 11.218 L 13.907 17.77 L 14.844 17.422 Z M 13.133 10.166 L 12.762 11.094 L 19.149 13.65 L 19.521 12.721 L 19.892 11.793 L 13.504 9.237 L 13.133 10.166 Z M 12.411 10.87 L 13.348 10.522 C 13.484 10.886 13.123 11.239 12.762 11.094 L 13.133 10.166 L 13.504 9.237 C 12.255 8.737 11.005 9.957 11.473 11.218 L 12.411 10.87 Z M 15.878 17.423 L 14.942 17.072 C 15.087 16.684 15.637 16.685 15.782 17.074 L 14.844 17.422 L 13.907 17.77 C 14.407 19.116 16.31 19.119 16.814 17.774 L 15.878 17.423 Z M 19.496 13.755 L 19.823 14.7 C 21.181 14.231 21.226 12.326 19.892 11.793 L 19.521 12.721 L 19.149 13.65 C 18.764 13.495 18.777 12.945 19.169 12.81 L 19.496 13.755 Z" fill="currentColor" fill-rule="nonzero"/>
</svg>
