<svg xmlns="http://www.w3.org/2000/svg" width="19.200" height="19.200" viewBox="0 0 19.200 19.200" fill="none">
  <path d="M 10.6 7.2 C 10.6 6.648 10.152 6.2 9.6 6.2 C 9.048 6.2 8.6 6.648 8.6 7.2 L 9.6 7.2 L 10.6 7.2 Z M 8.6 15.2 C 8.6 15.752 9.048 16.2 9.6 16.2 C 10.152 16.2 10.6 15.752 10.6 15.2 L 9.6 15.2 L 8.6 15.2 Z M 6.166 12.477 C 6.711 12.385 7.078 11.869 6.986 11.324 C 6.894 10.78 6.378 10.413 5.834 10.505 L 6 11.491 L 6.166 12.477 Z M 13.366 10.505 C 12.822 10.413 12.306 10.78 12.214 11.324 C 12.122 11.869 12.489 12.385 13.034 12.477 L 13.2 11.491 L 13.366 10.505 Z M 19.2 15.2 L 18.2 15.2 C 18.2 15.404 18.105 15.689 17.744 16.045 C 17.379 16.404 16.8 16.774 16.004 17.105 C 14.415 17.767 12.152 18.2 9.6 18.2 L 9.6 19.2 L 9.6 20.2 C 12.35 20.2 14.887 19.737 16.773 18.952 C 17.714 18.559 18.541 18.067 19.147 17.469 C 19.758 16.868 20.2 16.101 20.2 15.2 L 19.2 15.2 Z M 9.6 19.2 L 9.6 18.2 C 7.048 18.2 4.785 17.767 3.196 17.105 C 2.4 16.774 1.821 16.404 1.456 16.045 C 1.095 15.689 1 15.404 1 15.2 L 0 15.2 L -1 15.2 C -1 16.101 -0.558 16.868 0.053 17.469 C 0.659 18.067 1.486 18.559 2.427 18.952 C 4.313 19.737 6.85 20.2 9.6 20.2 L 9.6 19.2 Z M 9.6 7.2 L 8.6 7.2 L 8.6 15.2 L 9.6 15.2 L 10.6 15.2 L 10.6 7.2 L 9.6 7.2 Z M 12.8 3.2 L 11.8 3.2 C 11.8 4.415 10.815 5.4 9.6 5.4 L 9.6 6.4 L 9.6 7.4 C 11.92 7.4 13.8 5.52 13.8 3.2 L 12.8 3.2 Z M 9.6 6.4 L 9.6 5.4 C 8.385 5.4 7.4 4.415 7.4 3.2 L 6.4 3.2 L 5.4 3.2 C 5.4 5.52 7.28 7.4 9.6 7.4 L 9.6 6.4 Z M 6.4 3.2 L 7.4 3.2 C 7.4 1.985 8.385 1 9.6 1 L 9.6 0 L 9.6 -1 C 7.28 -1 5.4 0.88 5.4 3.2 L 6.4 3.2 Z M 9.6 0 L 9.6 1 C 10.815 1 11.8 1.985 11.8 3.2 L 12.8 3.2 L 13.8 3.2 C 13.8 0.88 11.92 -1 9.6 -1 L 9.6 0 Z M 0 15.2 L 1 15.2 C 1 14.892 1.241 14.375 2.199 13.793 C 3.117 13.236 4.485 12.76 6.166 12.477 L 6 11.491 L 5.834 10.505 C 3.996 10.815 2.364 11.354 1.162 12.083 C 0 12.788 -1 13.83 -1 15.2 L 0 15.2 Z M 13.2 11.491 L 13.034 12.477 C 14.715 12.76 16.083 13.236 17.001 13.793 C 17.959 14.375 18.2 14.892 18.2 15.2 L 19.2 15.2 L 20.2 15.2 C 20.2 13.83 19.2 12.788 18.038 12.083 C 16.836 11.354 15.204 10.815 13.366 10.505 L 13.2 11.491 Z" fill="currentColor" fill-rule="nonzero"/>
</svg>
