<svg xmlns="http://www.w3.org/2000/svg" width="19.200" height="18" viewBox="0 0 19.200 18" fill="none">
  <path d="M 8.6 14 C 8.6 14.552 9.048 15 9.6 15 C 10.152 15 10.6 14.552 10.6 14 L 9.6 14 L 8.6 14 Z M 6.166 11.277 C 6.711 11.185 7.078 10.669 6.986 10.124 C 6.894 9.58 6.378 9.213 5.834 9.305 L 6 10.291 L 6.166 11.277 Z M 13.366 9.305 C 12.822 9.213 12.306 9.58 12.214 10.124 C 12.122 10.669 12.489 11.185 13.034 11.277 L 13.2 10.291 L 13.366 9.305 Z M 9.6 0 L 10.214 -0.789 C 9.912 -1.024 9.504 -1.066 9.161 -0.898 C 8.818 -0.731 8.6 -0.382 8.6 0 L 9.6 0 Z M 15 4.2 L 15.6 5 C 15.849 4.813 15.997 4.52 16 4.209 C 16.003 3.897 15.86 3.602 15.614 3.411 L 15 4.2 Z M 9.6 7 C 9.158 7.331 9.069 7.958 9.4 8.4 C 9.731 8.842 10.358 8.931 10.8 8.6 L 10.2 7.8 L 9.6 7 Z M 19.2 14 L 18.2 14 C 18.2 14.204 18.105 14.489 17.744 14.845 C 17.379 15.204 16.8 15.574 16.004 15.905 C 14.415 16.567 12.152 17 9.6 17 L 9.6 18 L 9.6 19 C 12.35 19 14.887 18.537 16.773 17.752 C 17.714 17.359 18.541 16.867 19.147 16.269 C 19.758 15.668 20.2 14.901 20.2 14 L 19.2 14 Z M 9.6 18 L 9.6 17 C 7.048 17 4.785 16.567 3.196 15.905 C 2.4 15.574 1.821 15.204 1.456 14.845 C 1.095 14.489 1 14.204 1 14 L 0 14 L -1 14 C -1 14.901 -0.558 15.668 0.053 16.269 C 0.659 16.867 1.486 17.359 2.427 17.752 C 4.313 18.537 6.85 19 9.6 19 L 9.6 18 Z M 9.6 6 L 8.6 6 L 8.6 14 L 9.6 14 L 10.6 14 L 10.6 6 L 9.6 6 Z M 0 14 L 1 14 C 1 13.692 1.241 13.175 2.199 12.593 C 3.117 12.036 4.485 11.56 6.166 11.277 L 6 10.291 L 5.834 9.305 C 3.996 9.615 2.364 10.154 1.162 10.883 C 0 11.588 -1 12.63 -1 14 L 0 14 Z M 13.2 10.291 L 13.034 11.277 C 14.715 11.56 16.083 12.036 17.001 12.593 C 17.959 13.175 18.2 13.692 18.2 14 L 19.2 14 L 20.2 14 C 20.2 12.63 19.2 11.588 18.038 10.883 C 16.836 10.154 15.204 9.615 13.366 9.305 L 13.2 10.291 Z M 9.6 6 L 10.6 6 L 10.6 0 L 9.6 0 L 8.6 0 L 8.6 6 L 9.6 6 Z M 9.6 0 L 8.986 0.789 L 14.386 4.989 L 15 4.2 L 15.614 3.411 L 10.214 -0.789 L 9.6 0 Z M 15 4.2 L 14.4 3.4 L 9.6 7 L 10.2 7.8 L 10.8 8.6 L 15.6 5 L 15 4.2 Z" fill="currentColor" fill-rule="nonzero"/>
</svg>
